HIERARCHY
ROOT Hips
{
	OFFSET	0.00	0.00	0.00
	CHANNELS 6 Xposition Yposition Zposition Zrotation Xrotation Yrotation
	JOINT Spine
	{
		OFFSET	 0.00	0.01	 0.00
		CHANNELS 3 Zrotation Xrotation Yrotation
		JOINT Spine1
		{
			OFFSET	 0.00	 2.45913012437421	 0.00
			CHANNELS 3 Zrotation Xrotation Yrotation
            JOINT Neck
            {
                OFFSET	 0.00	 2.48462964506057	 0.00
                CHANNELS 3 Zrotation Xrotation Yrotation
                JOINT Head
                {
                    OFFSET	 0.00	 0.927524780924562	 0.00
                    CHANNELS 3 Zrotation Xrotation Yrotation
                    End Site 
                    {
                        OFFSET	 0.00	 1.14999962169752	 0.00
                    }
                }
            }
			JOINT LeftShoulder
			{
				OFFSET	 0.00	 2.48462964506057	 0.00
				CHANNELS 3 Zrotation Xrotation Yrotation
				JOINT LeftUpArm
				{
					OFFSET	 0.00	 1.24881979654096	 0.00
					CHANNELS 3 Zrotation Xrotation Yrotation
					JOINT LeftForeArm
					{
						OFFSET	 0.00	2.59758046908119	 0.00
						CHANNELS 3 Zrotation Xrotation Yrotation
						JOINT LeftHand
						{
							OFFSET	 0.00	2.45542024364365	 0.00
							CHANNELS 3 Zrotation Xrotation Yrotation
							JOINT LeftHandThumb 
							{
								OFFSET	 0.00	0.00	 0.00
								CHANNELS 3 Zrotation Xrotation Yrotation
								End Site
								{
									OFFSET	 0.00	0.00	1.00000003353624
								}
							}
							JOINT L_Wrist_End 
							{
								OFFSET	 0.00	0.99999967115358	 0.00
								CHANNELS 3 Zrotation Xrotation Yrotation
								End Site 
								{
									OFFSET	 0.00	 0.00	 0.00
								}
							}
						}
					}
				}
			}
			JOINT RightShoulder
			{
				OFFSET	 0.00	 2.48462964506057	 0.00
				CHANNELS 3 Zrotation Xrotation Yrotation
				JOINT RightUpArm
				{
					OFFSET	 0.00	 1.24881979654096	 0.00
					CHANNELS 3 Zrotation Xrotation Yrotation
					JOINT RightForeArm
					{
						OFFSET	 0.00	2.59758046908119	 0.00
						CHANNELS 3 Zrotation Xrotation Yrotation
						JOINT RightHand
						{
							OFFSET	 0.00	2.45542024364365	 0.00
							CHANNELS 3 Zrotation Xrotation Yrotation
							JOINT RightHandThumb 
							{
								OFFSET	 0.00	0.00	 0.00
								CHANNELS 3 Zrotation Xrotation Yrotation
								End Site
								{
									OFFSET	 0.00	0.00	1.00000003353624
								}
							}
							JOINT R_Wrist_End 
							{
								OFFSET	 0.00	0.99999967115358	 0.00
								CHANNELS 3 Zrotation Xrotation Yrotation
								End Site 
								{
									OFFSET	 0.00	 0.00	 0.00
								}
							}
						}
					}
				}
			}
		}
	}
	JOINT LeftUpLeg
	{
		OFFSET	 1.2719394002717	 0.00	 0.00
		CHANNELS 3 Zrotation Xrotation Yrotation
		JOINT LeftLowLeg
		{
			OFFSET	 0.00	-4.3429100912261	 0.00
			CHANNELS 3 Zrotation Xrotation Yrotation
			JOINT LeftFoot
			{
				OFFSET	 0.00	-4.48767017425826	 0.00
				CHANNELS 3 Zrotation Xrotation Yrotation
				JOINT LeftToeBase
                {
                    OFFSET	 0.00	0.00	 1.51507020887566
                    CHANNELS 3 Zrotation Xrotation Yrotation
                    End Site 
                    {
                        OFFSET	 0.00	0.00	 0.75000010571191
                    }
                }
			}
		}
	}
	JOINT RightUpLeg
	{
		OFFSET	 -1.2719393604653	 0.00	 0.00
		CHANNELS 3 Zrotation Xrotation Yrotation
		JOINT RightLowLeg
		{
			OFFSET	 0.00	-4.3429100912261	 0.00
			CHANNELS 3 Zrotation Xrotation Yrotation
			JOINT RightFoot
			{
				OFFSET	 0.00	-4.48767017425826	 0.00
				CHANNELS 3 Zrotation Xrotation Yrotation
				JOINT RightToeBase
                {
                    OFFSET	 0.00	0.00	 1.51507020887566
                    CHANNELS 3 Zrotation Xrotation Yrotation
                    End Site 
                    {
                        OFFSET	 0.00	0.00	 0.749999965609858
                    }
                }   
			}
		}
	}
}
MOTION 
Frames:	15 
Frame Time: 0.02 
  -6.64072021484375 -8.33593994140625 8.983619995117188 -143.475 62.001 526.845 -5.36252 56.2558 8.00709 14.7414 5.67591 2.28875 -18.1998 36.406 746.057 -143.855 -62.7235 204.066 -112.7213 15.1318 10.5993 18.5289 24.5625 -58.4114 0.0 10.6515 0.0 49.5369 -9.23199 -9.58588 0.0 0.0 0.0 0.0 0.0 0.0 108.7294 24.6475 -383.22 -19.7208 41.7567 48.4158 0.0 43.1972 0.0 -30.537 -10.9838 -14.2019 0.0 0.0 0.0 0.0 0.0 0.0 19.0881 -44.3694 14.4019 0.0 22.5547 0.0 -22.7655 6.9613895 -0.779996 0.0 -34.6045 0.0 2.57877 -41.4744 -14.1755 0.0 22.4941 0.0 15.3915 9.76501 -0.140245 0.0 -42.253998 0.0 
  -6.616710205078125 -8.35718994140625 8.985980224609374 -143.234 61.3092 526.683 -5.70008 56.7948 8.16578 14.6873 4.73633 2.21841 -19.3558 38.0067 747.059 -145.215 -61.8553 202.247 -111.945 16.5223 9.64323 17.9737 24.0195 -57.7767 0.0 11.1894 0.0 51.8246 -9.7193 -11.1478 0.0 0.0 0.0 0.0 0.0 0.0 109.4605 25.2787 -384.319 -20.8217 41.2184 49.3319 0.0 43.3879 0.0 -30.7173 -10.9771 -14.0681 0.0 0.0 0.0 0.0 0.0 0.0 19.3105 -45.1137 14.0043 0.0 23.0117 0.0 -22.925 6.4591503 -0.427508 0.0 -34.6093 0.0 2.64298 -41.7334 -14.6235 0.0 22.1892 0.0 15.5853 9.89315 0.338379 0.0 -42.3237 0.0 
  -6.594749755859375 -8.374110107421876 8.987319946289062 -143.253 60.8557 526.587 -6.1275 57.3835 8.42899 14.1642 4.04882 2.11732 -19.49 39.1561 747.227 -146.682 -61.4284 200.744 -110.9411 18.0249 8.33464 17.6133 23.6399 -56.1808 0.0 11.3057 0.0 54.0551 -9.82131 -11.2424 0.0 0.0 0.0 0.0 0.0 0.0 110.1354 25.9448 -384.798 -21.21 40.7988 49.8488 0.0 43.7087 0.0 -30.7048 -11.0732 -13.9283 0.0 0.0 0.0 0.0 0.0 0.0 19.3589 -45.5608 13.3594 0.0 23.3658 0.0 -23.1093 5.9002705 0.125007 0.0 -34.6233 0.0 2.71101 -41.9555 -14.6639 0.0 22.0745 0.0 15.7221 9.95587 0.560341 0.0 -42.367203 0.0 
  -6.574039916992188 -8.386719970703124 8.987239990234375 -143.498 60.5337 526.61 -6.96828 58.1289 9.13537 13.7482 3.25129 2.06715 -19.3393 39.685 747.113 -147.539 -61.294 200.017 -110.115295 19.1237 7.21501 17.9197 24.082 -54.7401 0.0 10.7268 0.0 55.9336 -9.85279 -9.92798 0.0 0.0 0.0 0.0 0.0 0.0 110.509 25.9859 -385.148 -22.0728 40.8221 50.1268 0.0 43.66 0.0 -31.4687 -11.277 -13.4396 0.0 0.0 0.0 0.0 0.0 0.0 19.3488 -45.8862 13.1103 0.0 23.7157 0.0 -23.2314 5.4016705 0.529337 0.0 -34.5439 0.0 2.69833 -42.2067 -14.5483 0.0 22.1222 0.0 15.8572 9.949961 0.705919 0.0 -42.394302 0.0 
  -6.5514599609375 -8.405070190429688 8.988090209960937 -143.782 60.0771 526.726 -8.19683 58.4289 10.1195 14.1294 2.68886 1.80857 -19.8501 40.488 747.23 -148.294 -60.7389 199.434 -109.8682 20.0085 5.91341 18.1831 24.751 -53.8361 0.0 10.2752 0.0 56.8604 -10.2685 -9.41558 0.0 0.0 0.0 0.0 0.0 0.0 110.4841 26.2067 -385.251 -22.5281 41.1293 50.4885 0.0 43.5662 0.0 -31.4598 -11.834 -12.8995 0.0 0.0 0.0 0.0 0.0 0.0 19.4632 -46.2689 13.4663 0.0 23.9923 0.0 -22.9977 5.10205 0.599153 0.0 -34.5901 0.0 2.63953 -42.4953 -14.6332 0.0 22.0813 0.0 15.9556 9.94478 0.960315 0.0 -42.458298 0.0 
  -6.526680297851563 -8.4277001953125 8.989669799804688 -143.806 59.7959 526.736 -8.34456 58.9637 9.96853 14.2978 1.75379 1.56914 -23.2846 42.5307 749.953 -148.476 -59.1712 198.352 -107.9378 22.6623 -5.29869 10.3096 24.8527 -43.1092 0.0 12.0829 0.0 58.6044 -10.8906 -8.98814 0.0 0.0 0.0 0.0 0.0 0.0 111.0951 27.1436 -385.924 -22.6767 41.0628 50.3996 0.0 43.1289 0.0 -31.7116 -11.9173 -12.1231 0.0 0.0 0.0 0.0 0.0 0.0 19.5658 -46.3961 14.0085 0.0 24.1016 0.0 -22.8587 4.9275 0.28404 0.0 -34.7508 0.0 2.52471 -42.4909 -15.0006 0.0 21.9596 0.0 16.0402 9.953751 1.34124 0.0 -42.5579 0.0 
  -6.504329833984375 -8.442420043945312 8.989940185546875 -143.666 59.3128 526.668 -8.89386 59.3035 10.2122 14.6274 0.904267 1.28656 -24.6138 43.6811 750.939 -149.144 -58.7613 197.816 -103.9234 22.3535 -22.1994 -2.94811 25.886 -29.7773 0.0 15.4174 0.0 61.149 -10.9167 -7.74609 0.0 0.0 0.0 0.0 0.0 0.0 111.42 27.7678 -387.506 -23.6903 40.755 51.7629 0.0 42.878 0.0 -32.4636 -11.8486 -11.852 0.0 0.0 0.0 0.0 0.0 0.0 19.798 -46.8933 14.3557 0.0 24.446 0.0 -22.9245 4.6895 0.0820547 0.0 -34.6763 0.0 2.45575 -42.7674 -15.4998 0.0 21.9515 0.0 16.0515 10.03289 1.68452 0.0 -42.7383 0.0 
  -6.48552001953125 -8.450020141601563 8.989829711914062 -143.34 59.0893 526.553 -10.2582 59.5583 12.2061 15.1523 0.774967 2.15752 -20.4347 43.4553 746.294 -150.285 -59.9358 198.067 -104.0591 22.3895 -23.1456 -4.69792 30.5042 -31.5123 0.0 16.8068 0.0 62.8589 -11.9132 -7.26209 0.0 0.0 0.0 0.0 0.0 0.0 110.3856 25.4713 -386.543 -24.3407 41.46 53.2229 0.0 43.1358 0.0 -32.342 -12.1697 -11.1124 0.0 0.0 0.0 0.0 0.0 0.0 19.834 -47.2919 14.333 0.0 24.8257 0.0 -22.7132 4.5232 0.204767 0.0 -34.8026 0.0 2.32058 -42.8714 -16.0531 0.0 22.0536 0.0 16.0677 10.05832 1.90079 0.0 -42.8918 0.0 
  -6.466900024414063 -8.461300048828125 8.993629760742188 -143.196 58.9218 526.701 -9.34036 59.9875 11.1063 14.0836 0.48336 2.0056 -19.8904 43.869 746.177 -151.456 -60.0541 197.03 -102.5693 21.436 -27.8065 -9.99704 32.4232 -27.7893 0.0 18.9981 0.0 62.4224 -11.915 -6.27375 0.0 0.0 0.0 0.0 0.0 0.0 111.2069 25.9664 -387.289 -24.6371 40.9871 54.0788 0.0 43.3892 0.0 -31.9862 -12.4964 -10.3836 0.0 0.0 0.0 0.0 0.0 0.0 19.6664 -47.5255 14.1267 0.0 24.9717 0.0 -22.6476 4.6039 0.116666 0.0 -34.8192 0.0 2.0501 -42.8652 -16.5943 0.0 22.0512 0.0 16.0962 10.054689 2.02591 0.0 -42.9217 0.0 
  -6.450330200195313 -8.474240112304688 8.996790161132813 -143.075 58.7916 526.841 -9.63885 59.9291 11.4647 14.3134 0.619818 2.05366 -19.2466 43.9551 745.37 -151.5 -60.3115 197.162 -102.0074 20.7346 -30.8027 -14.584 34.9632 -23.4154 0.0 20.6 0.0 60.2939 -11.8915 -4.85981 0.0 0.0 0.0 0.0 0.0 0.0 111.1809 25.8884 -387.337 -24.8615 40.5797 54.3642 0.0 43.5609 0.0 -31.9526 -12.8973 -9.96852 0.0 0.0 0.0 0.0 0.0 0.0 19.5205 -47.6546 14.1957 0.0 25.0223 0.0 -22.6293 4.6380997 -0.0619076 0.0 -34.7393 0.0 1.85668 -42.8454 -16.8252 0.0 22.0739 0.0 16.2483 9.981831 1.99611 0.0 -42.998802 0.0 
  -6.434010009765625 -8.488209838867187 9.00041015625 -142.95 58.7434 527.025 -10.1372 59.6887 12.0681 15.0005 0.949513 2.11358 -19.2537 43.7683 745.123 -150.618 -60.4434 197.845 -101.4318 19.819 -35.0131 -21.1346 36.6717 -15.4501 0.0 22.4849 0.0 56.6519 -12.182 -4.109 0.0 0.0 0.0 0.0 0.0 0.0 109.7695 25.5114 -384.202 -21.9761 42.1626 51.8613 0.0 43.5339 0.0 -32.0559 -12.6993 -9.98883 0.0 0.0 0.0 0.0 0.0 0.0 19.2932 -47.6749 14.294 0.0 24.9956 0.0 -22.423 4.7335997 -0.259418 0.0 -34.6638 0.0 1.6491 -42.7576 -16.9025 0.0 22.1196 0.0 16.4806 9.830959 1.82002 0.0 -42.9657 0.0 
  -6.418300170898437 -8.501510009765624 9.003829956054688 -142.819 58.7504 527.164 -9.89506 59.599 11.8785 14.8419 1.0258 2.17665 -19.0147 43.6883 744.989 -150.409 -60.6045 197.865 -100.421 18.5087 -39.9218 -29.1391 36.7995 -4.94864 0.0 25.0762 0.0 52.4366 -11.8972 -4.35686 0.0 0.0 0.0 0.0 0.0 0.0 110.0762 25.6536 -384.535 -22.0351 41.4841 52.0274 0.0 43.606 0.0 -31.7861 -12.7424 -9.39723 0.0 0.0 0.0 0.0 0.0 0.0 19.1075 -47.6452 14.4735 0.0 25.0099 0.0 -22.1666 4.8299 -0.514487 0.0 -34.5849 0.0 1.46835 -42.6628 -16.9062 0.0 22.2351 0.0 16.6769 9.678659 1.59542 0.0 -42.918503 0.0 
  -6.40322998046875 -8.5152197265625 9.006929931640625 -142.625 58.722 527.297 -9.6246 59.1708 11.7544 15.0105 1.4215 2.29821 -18.9707 43.3289 744.893 -149.497 -60.7002 198.376 -99.76402 17.6375 -43.4501 -35.7696 36.1366 4.49358 0.0 28.6473 0.0 48.3645 -11.0744 -4.8506 0.0 0.0 0.0 0.0 0.0 0.0 109.9829 25.6999 -384.289 -21.7029 41.039 51.4902 0.0 43.405 0.0 -32.118 -12.5977 -9.44214 0.0 0.0 0.0 0.0 0.0 0.0 18.8653 -47.6865 14.274 0.0 25.0471 0.0 -22.0083 4.8577003 -0.600282 0.0 -34.558098 0.0 1.294 -42.5969 -16.9411 0.0 22.374 0.0 16.8731 9.501551 1.35404 0.0 -42.8154 0.0 
  -6.387249755859375 -8.5297998046875 9.01051025390625 -142.283 58.9398 527.331 -9.42605 58.822 11.7345 15.4534 1.87824 2.45395 -19.0854 43.0144 744.72 -148.383 -60.8604 199.307 -99.9212 17.3205 -44.1953 -39.4576 36.1561 11.7367 0.0 33.1693 0.0 45.4987 -9.54832 -5.13515 0.0 0.0 0.0 0.0 0.0 0.0 109.71 25.6914 -384.199 -21.3903 40.6031 51.2863 0.0 43.1452 0.0 -31.8766 -12.6867 -9.17294 0.0 0.0 0.0 0.0 0.0 0.0 18.1893 -47.2047 12.8006 0.0 24.4548 0.0 -22.0873 4.6433 -0.0960684 0.0 -34.5537 0.0 1.10916 -42.2448 -17.0314 0.0 22.4752 0.0 17.0916 9.34701 1.1431 0.0 -42.7977 0.0 
  -6.3689599609375 -8.5431298828125 9.017059936523438 -142.135 59.1611 527.52 -8.85005 58.5231 11.2807 15.5744 2.12771 2.57967 -19.6386 42.9106 745.155 -147.195 -60.7546 199.818 -101.5036 17.3837 -39.2729 -38.0848 39.7868 14.8988 0.0 38.2996 0.0 45.2708 -9.08784 -6.14651 0.0 0.0 0.0 0.0 0.0 0.0 109.6044 25.8687 -384.083 -20.6192 40.1659 50.9458 0.0 42.9478 0.0 -31.2994 -12.9619 -9.01448 0.0 0.0 0.0 0.0 0.0 0.0 17.338 -46.6467 10.7151 0.0 23.7201 0.0 -22.514 4.4988003 0.520892 0.0 -34.6288 0.0 0.826755 -41.8602 -17.2091 0.0 22.4677 0.0 17.2573 9.26105 0.9638 0.0 -42.692497 0.0 
